<svg width="21" height="17" viewBox="0 0 21 17" fill="none" xmlns="http://www.w3.org/2000/svg">
<g clip-path="url(#clip0_1793_7761)">
<path d="M19.8554 6.98633H0.899485C0.573419 6.98633 0.30957 7.20909 0.30957 7.48437C0.30957 10.5524 2.29247 13.3909 5.48517 14.8923C5.57275 14.9332 5.67182 14.9551 5.77206 14.9551H14.9829C15.0831 14.9551 15.1822 14.9332 15.2698 14.8923C18.4624 13.3909 20.4453 10.5524 20.4453 7.48437C20.4453 7.20909 20.1815 6.98633 19.8554 6.98633Z" fill="black"/>
<path d="M5.1377 15.9512C5.38204 16.5297 6.03071 16.9473 6.79878 16.9473H13.9564C14.7245 16.9473 15.3731 16.5296 15.6175 15.9512H5.1377Z" fill="black"/>
<path d="M18.0776 3.74965C17.6731 3.15821 17.002 2.73898 16.2277 2.57894C16.0382 1.92524 15.5416 1.35863 14.8405 1.0172C14.1348 0.673815 13.3035 0.59456 12.5408 0.785212C11.4439 -0.191425 9.31091 -0.191425 8.21402 0.785212C7.44898 0.593597 6.6194 0.674811 5.91371 1.0172C5.21317 1.35863 4.71661 1.92527 4.52706 2.57894C3.75277 2.73895 3.08165 3.15821 2.67724 3.75012C2.20716 4.43858 2.15753 5.26979 2.5348 5.99083H18.2168V5.99086C18.5944 5.26963 18.5478 4.43885 18.0776 3.74965ZM5.61875 3.99868C5.29296 3.99868 5.02884 3.77568 5.02884 3.50063C5.02884 3.22558 5.29296 3.00258 5.61875 3.00258C5.94454 3.00258 6.20867 3.22558 6.20867 3.50063C6.20867 3.77568 5.94454 3.99868 5.61875 3.99868ZM12.7764 3.99868C12.4506 3.99868 12.1865 3.77568 12.1865 3.50063C12.1865 3.22558 12.4506 3.00258 12.7764 3.00258C13.1022 3.00258 13.3663 3.22558 13.3663 3.50063C13.3663 3.77568 13.1022 3.99868 12.7764 3.99868ZM15.136 4.99477C14.8103 4.99477 14.5461 4.77178 14.5461 4.49672C14.5461 4.22167 14.8103 3.99868 15.136 3.99868C15.4618 3.99868 15.726 4.22167 15.726 4.49672C15.726 4.77178 15.4618 4.99477 15.136 4.99477Z" fill="black"/>
</g>
<defs>
<clipPath id="clip0_1793_7761">
<rect width="20.1358" height="17" fill="white" transform="translate(0.30957)"/>
</clipPath>
</defs>
</svg>
