<svg width="21" height="17" viewBox="0 0 21 17" fill="none" xmlns="http://www.w3.org/2000/svg">
<path d="M16.2681 6.33031C16.6945 6.43517 17.0854 6.62907 17.4082 6.90163C17.7591 7.19783 18.0002 7.56183 18.1151 7.95857C18.2702 7.93137 18.4227 7.89203 18.5714 7.84003C19.8615 7.38888 20.4764 6.13568 19.942 5.04647C19.4076 3.95726 17.9233 3.43817 16.6331 3.88933C16.4842 3.94142 16.3432 4.00478 16.2104 4.07832C16.7026 4.76611 16.7217 5.62884 16.2681 6.33031Z" fill="black"/>
<path d="M12.6357 3.26596C13.4669 2.88241 14.4895 2.89848 15.3046 3.31444C15.3917 3.20238 15.4668 3.08332 15.5285 2.95755C16.0629 1.86834 15.448 0.615139 14.1579 0.16395C13.5329 -0.0546223 12.8445 -0.0546555 12.2196 0.163884C11.5947 0.382423 11.1079 0.793371 10.8491 1.32109C10.7873 1.44683 10.7407 1.57582 10.7085 1.70707C11.6329 1.89958 12.3692 2.49865 12.6357 3.26596Z" fill="black"/>
<path d="M12.8141 7.53909C13.002 7.92172 13.5228 8.10374 13.9754 7.94546C14.4281 7.78715 14.6439 7.34738 14.4563 6.96514C14.2688 6.58291 13.7479 6.40076 13.2952 6.55907C12.8426 6.71735 12.6268 7.15692 12.8141 7.53909Z" fill="black"/>
<path d="M14.9782 12.6458C15.2608 12.4072 15.4164 12.09 15.4165 11.7526C15.4165 11.4686 15.3058 11.199 15.1024 10.9785C14.7096 11.3113 14.1702 11.4982 13.6134 11.4938C13.6185 11.9638 13.3973 12.419 13.0034 12.7505C13.5899 13.1351 14.4398 13.1004 14.9782 12.6458Z" fill="black"/>
<path d="M15.1022 6.02085C15.5577 5.52574 15.5166 4.80816 14.9782 4.35355C14.4398 3.89898 13.5899 3.86435 13.0034 4.24883C13.3975 4.58043 13.6189 5.03573 13.6136 5.50581C14.1703 5.5015 14.7095 5.68826 15.1022 6.02085Z" fill="black"/>
<path d="M13.2952 10.4415C13.7479 10.5998 14.2688 10.4177 14.4564 10.0355C14.6439 9.65325 14.4281 9.21348 13.9754 9.05517C13.5227 8.89685 13.0018 9.07897 12.8142 9.46127C12.6267 9.84347 12.8425 10.2832 13.2952 10.4415Z" fill="black"/>
<path d="M4.83117 3.31441C5.24457 3.10261 5.71976 2.98929 6.21571 2.98926C6.67222 2.98926 7.11107 3.08555 7.50044 3.26597C7.76728 2.49899 8.50364 1.90028 9.4279 1.70791C9.39569 1.57663 9.34901 1.44763 9.2873 1.32183C8.75285 0.232653 7.26849 -0.286435 5.97841 0.164721C4.68829 0.61591 4.07346 1.86907 4.60783 2.95828C4.66938 3.08376 4.74425 3.20259 4.83117 3.31441Z" fill="black"/>
<path d="M19.9419 10.3166C19.683 9.789 19.1962 9.37809 18.5712 9.15952C18.4226 9.10755 18.2701 9.06821 18.115 9.04102C18.0001 9.43755 17.759 9.80139 17.4083 10.0975C17.1556 10.3108 16.8612 10.4763 16.5407 10.5884C16.4522 10.6193 16.3615 10.6458 16.2693 10.6685C16.4826 10.997 16.5964 11.3672 16.5964 11.7522C16.5964 12.1711 16.462 12.5724 16.2109 12.9216C16.3434 12.9949 16.4842 13.0582 16.6328 13.1102C17.2778 13.3357 17.9716 13.3187 18.5707 13.1092C19.1699 12.8997 19.6745 12.4977 19.9417 11.953C20.2007 11.4254 20.2007 10.8442 19.9419 10.3166Z" fill="black"/>
<path d="M15.3041 13.6855C15.1889 13.7443 15.0697 13.7953 14.9473 13.8381C14.2043 14.098 13.3499 14.0632 12.6366 13.7343C12.5123 14.0942 12.2827 14.4242 11.9599 14.6967C11.7073 14.91 11.4128 15.0755 11.0923 15.1876C10.9679 15.2311 10.8394 15.2663 10.708 15.2934C10.7402 15.4244 10.7868 15.5532 10.8484 15.6787C11.3827 16.7679 12.8671 17.287 14.1572 16.8358C15.4473 16.3846 16.0622 15.1315 15.5278 14.0422C15.4662 13.9165 15.3912 13.7975 15.3041 13.6855Z" fill="black"/>
<path d="M7.50019 13.7341C7.41623 13.7728 7.33054 13.8079 7.24311 13.8385C6.4646 14.1108 5.56389 14.0596 4.83119 13.6855C4.74408 13.7976 4.66905 13.9166 4.60734 14.0423C4.07297 15.1316 4.6878 16.3847 5.97793 16.8359C6.60299 17.0545 7.29133 17.0545 7.91623 16.836C8.54114 16.6175 9.02789 16.2065 9.28674 15.6788C9.34844 15.5531 9.39508 15.4241 9.42729 15.2928C8.50295 15.1003 7.76667 14.5013 7.50019 13.7341Z" fill="black"/>
<path d="M1.56478 7.83999C1.71371 7.89208 1.86649 7.93146 2.02195 7.95869C2.25001 7.17826 2.95962 6.55664 3.86843 6.33166C3.41409 5.62986 3.43308 4.76646 3.92581 4.07837C3.79308 4.00479 3.65205 3.94141 3.50308 3.88932C2.213 3.43819 0.728645 3.95725 0.194192 5.04646C-0.0646978 5.57418 -0.0647371 6.15532 0.194113 6.68291C0.453002 7.21047 0.939752 7.62141 1.56478 7.83999Z" fill="black"/>
<path d="M3.86649 10.669C3.4405 10.564 3.04999 10.3702 2.72747 10.098C2.37663 9.80175 2.13552 9.43775 2.02064 9.04102C1.8655 9.06821 1.71303 9.10755 1.56437 9.15952C0.274213 9.61067 -0.340625 10.8639 0.193789 11.953C0.728164 13.0423 2.21252 13.5613 3.50264 13.1102C3.65126 13.0582 3.79201 12.995 3.92446 12.9216C3.67359 12.5726 3.53933 12.1714 3.53937 11.7527C3.53933 11.3677 3.65315 10.9975 3.86649 10.669Z" fill="black"/>
<path d="M11.8855 12.2052C12.3383 12.0469 12.554 11.6071 12.3665 11.2249C12.179 10.8427 11.6581 10.6605 11.2053 10.8188C10.7526 10.9771 10.5369 11.4169 10.7244 11.7992C10.9119 12.1814 11.4328 12.3636 11.8855 12.2052Z" fill="black"/>
<path d="M3.12354 8.49906C3.12354 8.8365 3.27919 9.15371 3.56176 9.39234C3.79964 9.59315 4.1036 9.71766 4.43218 9.75216C4.4312 9.28237 4.65603 8.82819 5.05347 8.49893C4.65622 8.16966 4.43139 7.71571 4.43226 7.24609C3.69551 7.32429 3.1235 7.85619 3.12354 8.49906Z" fill="black"/>
<path d="M7.13226 12.7506C6.73817 12.419 6.51679 11.9637 6.52206 11.4937C5.96535 11.498 5.4261 11.3112 5.03338 10.9785C4.8299 11.1991 4.71924 11.4686 4.71924 11.7526C4.71924 12.0901 4.87489 12.4073 5.1575 12.6459C5.69592 13.1005 6.54578 13.1352 7.13226 12.7506Z" fill="black"/>
<path d="M5.15754 4.35438C4.61907 4.80896 4.57801 5.52647 5.0335 6.02162C5.42626 5.68889 5.96559 5.502 6.52234 5.50645C6.51723 5.03643 6.73848 4.58116 7.1325 4.2496C6.87125 4.07781 6.55199 3.98438 6.21559 3.98438C5.81591 3.98441 5.44018 4.11579 5.15754 4.35438Z" fill="black"/>
<path d="M5.67947 6.96514C5.49195 7.34738 5.7077 7.78712 6.1604 7.94546C6.61307 8.10378 7.13384 7.92169 7.32144 7.53959C7.50899 7.15702 7.29324 6.71738 6.84058 6.55907C6.38788 6.40076 5.86698 6.58291 5.67947 6.96514Z" fill="black"/>
<path d="M7.32158 9.46122C7.13406 9.07899 6.61317 8.89684 6.16043 9.05518C5.70769 9.21349 5.49194 9.65327 5.67949 10.0355C5.867 10.4177 6.3879 10.5999 6.84064 10.4416C7.29334 10.2832 7.50909 9.84346 7.32158 9.46122Z" fill="black"/>
<path d="M11.5523 13.2589C10.9959 13.2597 10.4579 13.0699 10.0679 12.7344C9.6779 13.0698 9.14022 13.2596 8.58398 13.2588C8.6766 13.8809 9.30658 14.3638 10.0681 14.3638C10.4677 14.3638 10.8435 14.2324 11.1261 13.9938C11.364 13.7929 11.5114 13.5363 11.5523 13.2589Z" fill="black"/>
<path d="M16.5737 9.39244C16.8563 9.15384 17.012 8.83663 17.012 8.49919C17.012 8.16175 16.8563 7.8445 16.5737 7.60591C16.3359 7.4051 16.0319 7.28059 15.7033 7.24609C15.7043 7.71588 15.4795 8.17005 15.082 8.49932C15.4793 8.82863 15.7041 9.28264 15.7033 9.75229C16.0319 9.71779 16.3359 9.59328 16.5737 9.39244Z" fill="black"/>
<path d="M11.724 9.07917C11.9073 8.70564 11.9073 8.29423 11.724 7.9207C11.5408 7.54717 11.1962 7.25629 10.7538 7.10156C9.84052 6.78215 8.78971 7.14967 8.41138 7.9207C8.0331 8.69177 8.46833 9.5789 9.38162 9.89831C10.295 10.2177 11.3458 9.8502 11.724 9.07917Z" fill="black"/>
<path d="M8.9305 6.18177C9.38324 6.02346 9.59899 5.58369 9.41144 5.20145C9.22392 4.81925 8.70303 4.63706 8.25029 4.79541C7.79755 4.95376 7.5818 5.3935 7.76931 5.77573C7.95686 6.15793 8.47776 6.34009 8.9305 6.18177Z" fill="black"/>
<path d="M8.25029 12.2052C8.70303 12.3635 9.22392 12.1813 9.41144 11.7991C9.59895 11.417 9.38328 10.9773 8.93022 10.8188C8.47752 10.6606 7.95682 10.8427 7.76931 11.2249C7.5818 11.6071 7.79755 12.0468 8.25029 12.2052Z" fill="black"/>
<path d="M11.2053 6.18176C11.6582 6.34011 12.179 6.15792 12.3665 5.77572C12.554 5.39348 12.3383 4.95374 11.8855 4.7954C11.4328 4.63708 10.9119 4.81924 10.7244 5.20144C10.5369 5.58367 10.7526 6.02341 11.2053 6.18176Z" fill="black"/>
<path d="M8.58398 3.74163C9.1403 3.7409 9.67806 3.93079 10.0681 4.26627C10.4581 3.93079 10.9959 3.74094 11.5522 3.74163C11.4596 3.11958 10.8296 2.63672 10.0681 2.63672C9.30646 2.63665 8.67656 3.11958 8.58398 3.74163Z" fill="black"/>
</svg>
