<svg width="22" height="17" viewBox="0 0 22 17" fill="none" xmlns="http://www.w3.org/2000/svg">
<path d="M19.9557 6.99434C19.263 5.98551 18.2819 5.13053 17.0973 4.50329C15.9126 3.87604 14.5599 3.4954 13.1562 3.39425C11.4772 3.2192 9.93218 2.55003 8.80702 1.51059C6.58002 -0.468792 2.82987 -0.657332 1.36345 1.8728C-0.912922 5.73449 1.19319 10.0679 1.28572 10.2505C4.6898 16.7097 10.1419 17.2286 13.6225 16.9394C20.4674 15.868 22.6115 11.0985 19.9557 6.99434ZM19.4301 11.2365C19.3061 11.8598 19.0263 12.4553 18.6084 12.9854C18.1905 13.5154 17.6435 13.9685 17.002 14.3161C16.9584 14.3387 16.9094 14.3534 16.8583 14.3592C16.8073 14.365 16.7553 14.3617 16.7059 14.3496C16.6564 14.3377 16.6104 14.3175 16.5709 14.2903C16.5314 14.2631 16.4992 14.2294 16.4764 14.1914L15.0846 11.8208C15.0543 11.7685 15.0424 11.7103 15.0502 11.6527C15.0581 11.5952 15.0854 11.5406 15.1291 11.4951C15.3477 11.2726 15.495 11.0087 15.5577 10.7273C15.6203 10.446 15.5963 10.1562 15.4877 9.88445C15.3791 9.61271 15.1895 9.36766 14.9361 9.17166C14.6827 8.97566 14.3737 8.83496 14.0371 8.7624C13.9704 8.75121 13.9089 8.72485 13.8595 8.68632C13.7876 8.62733 13.7464 8.54766 13.7447 8.46417L13.6189 5.24454C13.6175 5.19958 13.6283 5.15492 13.6505 5.11379C13.6726 5.07267 13.7056 5.03609 13.747 5.0067C13.7884 4.97731 13.8373 4.95583 13.89 4.94381C13.9427 4.93179 13.998 4.92953 14.0519 4.93719C15.0502 5.1278 15.9879 5.49025 16.8033 6.00064C17.6187 6.51103 18.2932 7.15775 18.7824 7.89815C19.4671 8.91421 19.6964 10.0957 19.4301 11.2365ZM4.06549 11.9942C0.903185 8.38436 1.34843 2.9428 3.26959 1.65056C4.96864 0.542911 7.01923 1.79668 7.87796 2.62441C8.99997 3.5134 10.3662 4.16686 11.8607 4.52941C12.2411 4.61702 12.5772 4.80264 12.8198 5.059C13.0623 5.31536 13.1984 5.62892 13.208 5.95359C13.2071 5.96852 13.3061 8.44809 13.3043 8.46109C13.3023 8.52841 13.2733 8.59329 13.2217 8.6456C13.1701 8.69791 13.0989 8.7347 13.0192 8.75022C12.5628 8.83998 12.1566 9.05377 11.8664 9.35698C11.5762 9.6602 11.419 10.0351 11.4202 10.4209C11.3619 10.7392 11.7461 11.1078 11.4203 11.3278C9.68426 12.4415 7.55964 12.6667 6.14199 12.6667C5.33305 12.6971 4.53795 12.5757 4.06549 11.9942ZM13.5041 8.99063C15.8036 9.04932 15.8031 11.7928 13.5041 11.8512C11.2098 11.7916 11.2104 9.04991 13.5041 8.99063ZM7.11547 13.7927C7.14669 13.5921 7.25058 13.4039 7.41362 13.2525C7.57666 13.101 7.79133 12.9935 8.02972 12.9437C10.0828 12.5101 11.0485 11.9045 11.4646 11.5803C11.5009 11.5528 11.5434 11.5314 11.5898 11.5175C11.6362 11.5037 11.6855 11.4975 11.7348 11.4995C11.784 11.5015 11.8324 11.5116 11.8769 11.5291C11.9214 11.5466 11.9612 11.5713 11.994 11.6016C12.1885 11.7702 12.4227 11.9046 12.6823 11.9967C12.9419 12.0887 13.2215 12.1365 13.5042 12.1372C13.8596 12.1314 14.2088 12.0596 14.5257 11.9272C14.6092 11.9111 14.6969 11.9193 14.7738 11.9504C14.8508 11.9814 14.9122 12.0335 14.9477 12.0977L15.9619 13.957C16.0272 14.078 16.0628 14.2085 16.0665 14.3408C16.0702 14.4732 16.0419 14.6048 15.9834 14.7282C15.9249 14.8515 15.8373 14.9641 15.7256 15.0595C15.6139 15.1549 15.4804 15.2311 15.3327 15.2838C12.8571 16.2191 9.68933 15.7695 7.7262 14.7877C7.51315 14.6928 7.34046 14.5467 7.2313 14.3688C7.12214 14.191 7.08172 13.99 7.11547 13.7927Z" fill="black"/>
<path d="M15.2917 14.5185C15.3162 14.4685 15.3281 14.415 15.3268 14.3612C15.3256 14.3073 15.3111 14.2542 15.2843 14.205L14.4219 12.6196C14.1269 12.7048 13.8165 12.748 13.5039 12.7474C12.8498 12.7454 12.2168 12.5572 11.7124 12.2148C10.6763 12.8578 9.48295 13.3084 8.21457 13.5356C8.12014 13.5527 8.03432 13.5931 7.96857 13.6514C7.90281 13.7097 7.86026 13.7831 7.84658 13.8619C7.8329 13.9406 7.84874 14.0208 7.892 14.0919C7.93526 14.163 8.00388 14.2216 8.08869 14.2598C9.70254 15.0023 12.2232 15.6871 15.0511 14.7224C15.1062 14.704 15.156 14.6763 15.1975 14.6412C15.2389 14.6061 15.271 14.5643 15.2917 14.5185Z" fill="black"/>
<path d="M14.374 5.63672L14.4777 8.23859C14.8807 8.36004 15.2448 8.55533 15.5423 8.80965C15.8399 9.06396 16.0631 9.37064 16.1951 9.70643C16.3271 10.0422 16.3643 10.3983 16.3041 10.7477C16.2438 11.0971 16.0875 11.4306 15.8472 11.723L16.9539 13.6067C17.8847 12.9784 18.5067 12.094 18.7047 11.1174C19.4045 8.42927 16.539 6.12252 14.374 5.63672Z" fill="black"/>
<path d="M10.7618 10.9683C10.5968 10.4105 10.6889 9.82228 11.0205 9.31707C11.352 8.81185 11.8994 8.4255 12.557 8.23256L12.4681 5.97152C12.4623 5.77604 12.3804 5.58724 12.2346 5.4328C12.0887 5.27836 11.8864 5.16641 11.6575 5.11336C10.0423 4.72222 8.5656 4.01654 7.35277 3.0562C7.34507 3.04744 7.3364 3.03929 7.32686 3.03186C7.30465 3.01056 5.30588 1.09947 3.72907 2.12805C3.35446 2.38359 3.08974 2.7314 2.97398 3.12011C2.5039 4.52603 1.7266 8.17474 4.67293 11.6439C4.76918 11.7595 4.89622 11.8554 5.04439 11.9245C5.19256 11.9936 5.35795 12.034 5.52796 12.0426C6.72352 12.1004 8.95919 12.0365 10.7618 10.9683Z" fill="black"/>
<path d="M13.5045 11.2409C13.7676 11.2384 14.0188 11.1508 14.2038 10.997C14.3887 10.8431 14.4924 10.6356 14.4924 10.4193C14.4924 10.203 14.3887 9.99544 14.2037 9.84163C14.0188 9.68781 13.7676 9.60015 13.5045 9.59766C13.2414 9.60016 12.9902 9.68783 12.8053 9.84164C12.6203 9.99546 12.5166 10.203 12.5166 10.4193C12.5166 10.6356 12.6203 10.8432 12.8053 10.997C12.9902 11.1508 13.2415 11.2385 13.5045 11.2409Z" fill="black"/>
</svg>
