<svg width="16" height="16" viewBox="0 0 16 16" fill="none" xmlns="http://www.w3.org/2000/svg">
<path d="M15.1683 6.33631L14.1443 6.14431C14.0163 5.76031 13.8883 5.37631 13.6323 4.99231L14.2723 4.16031C14.4643 3.90431 14.4003 3.58431 14.2083 3.32831L12.7363 1.85631C12.5443 1.66431 12.1603 1.60031 11.9043 1.79231L11.0723 2.36831C10.6883 2.17631 10.2403 1.98431 9.79231 1.85631L9.60031 0.832312C9.53631 0.512312 9.28031 0.320312 8.96031 0.320312H6.84831C6.52831 0.320312 6.27231 0.576312 6.20831 0.832312L6.08031 1.85631C5.69631 1.92031 5.24831 2.11231 4.86431 2.36831L4.09631 1.79231C3.84031 1.60031 3.52031 1.60031 3.26431 1.85631L1.79231 3.32831C1.60031 3.52031 1.53631 3.90431 1.72831 4.16031L2.30431 4.92831C2.04831 5.31231 1.92031 5.76031 1.79231 6.20831L0.832312 6.33631C0.512312 6.40031 0.320312 6.65631 0.320312 6.97631V9.08831C0.320312 9.40831 0.576312 9.66431 0.832312 9.72831L1.79231 9.85631C1.92031 10.3043 2.11231 10.6883 2.30431 11.1363L1.79231 11.9043C1.60031 12.1603 1.60031 12.4803 1.85631 12.7363L3.32831 14.2083C3.52031 14.4003 3.90431 14.4643 4.16031 14.2723L4.92831 13.6963C5.31231 13.8883 5.69631 14.0803 6.08031 14.2083L6.20831 15.1683C6.27231 15.4883 6.52831 15.6803 6.84831 15.6803H8.96031C9.28031 15.6803 9.53631 15.4243 9.60031 15.1683L9.72831 14.2083C10.1763 14.0803 10.5603 13.8883 10.9443 13.6963L11.7763 14.2723C12.0323 14.4643 12.4163 14.4003 12.6083 14.2083L14.0803 12.7363C14.2723 12.5443 14.3363 12.1603 14.1443 11.9043L13.5683 11.0723C13.7603 10.6883 13.9523 10.3043 14.0803 9.92031L15.1043 9.72831C15.4243 9.66431 15.6163 9.40831 15.6163 9.08831V6.97631C15.6803 6.65631 15.4243 6.40031 15.1683 6.33631ZM11.7123 11.0083C11.1363 10.3043 10.4323 9.79231 9.53631 9.47231C9.40831 9.40831 9.28031 9.47231 9.21631 9.47231C8.83231 9.60031 8.44831 9.72831 8.06431 9.72831C7.68031 9.72831 7.23231 9.66431 6.91231 9.47231C6.78431 9.40831 6.65631 9.40831 6.59231 9.47231C5.69631 9.79231 4.92831 10.3043 4.41631 11.0083C3.77631 10.1763 3.39231 9.15231 3.39231 8.06431C3.39231 5.44031 5.50431 3.26431 8.19231 3.26431C10.8163 3.26431 12.9283 5.37631 12.9283 8.06431C12.7363 9.15231 12.3523 10.1763 11.7123 11.0083Z" fill="white"/>
<path d="M8.00008 4.86523C6.91208 4.86523 6.08008 5.76123 6.08008 6.78523C6.08008 7.87323 6.91208 8.70523 8.00008 8.70523C9.02408 8.70523 9.92008 7.87323 9.92008 6.78523C9.92008 5.69723 9.08808 4.86523 8.00008 4.86523Z" fill="white"/>
</svg>
