<svg width="16" height="16" viewBox="0 0 16 16" fill="none" xmlns="http://www.w3.org/2000/svg">
<g clip-path="url(#clip0_1965_13701)">
<path d="M14.0676 3.92029L12.079 1.93164L8.37598 5.66565L10.365 7.65454L14.0676 3.92029Z" fill="white"/>
<path d="M6.59498 8.82178C6.43397 9.20837 6.82215 9.59607 7.20851 9.43457L9.589 8.20313L7.82533 6.43945L6.59498 8.82178Z" fill="white"/>
<path d="M15.8625 2.12585C16.0457 1.94275 16.0457 1.646 15.8625 1.46289L14.5369 0.137329C14.3538 -0.0457764 14.057 -0.0457764 13.8739 0.137329L12.7422 1.26904L14.7307 3.25769L15.8625 2.12585Z" fill="white"/>
<path d="M1.40625 13.1563H1.875V15.5313C1.875 15.7207 1.98901 15.892 2.16431 15.9642C2.33704 16.0364 2.5398 15.9979 2.67517 15.8627L5.38159 13.1563H10.8438C11.6191 13.1563 12.25 12.5254 12.25 11.75V7.09583L10.7714 8.57446C10.6423 8.70361 10.4917 8.80518 10.3228 8.8761L7.63892 10.2677C7.3949 10.373 7.21179 10.4102 7.02503 10.4102C6.8855 10.4102 6.75098 10.3833 6.62097 10.3438H3.28125C3.0221 10.3438 2.8125 10.134 2.8125 9.875C2.8125 9.61585 3.0221 9.40625 3.28125 9.40625H5.65491C5.56238 9.09937 5.60205 8.76697 5.72961 8.46191L7.17615 5.65259C7.21729 5.54871 7.31897 5.39758 7.44763 5.26904L8.93543 3.78125H1.40625C0.630859 3.78125 0 4.41211 0 5.1875V11.75C0 12.5254 0.630859 13.1563 1.40625 13.1563Z" fill="white"/>
</g>
<defs>
<clipPath id="clip0_1965_13701">
<rect width="16" height="16" fill="white"/>
</clipPath>
</defs>
</svg>
